HIERARCHY
ROOT mixamorig:Hips
{
	OFFSET -0.000008 104.274872 1.554316
	CHANNELS 6 Xposition Yposition Zposition Xrotation Yrotation Zrotation
	JOINT mixamorig:Spine
	{
		OFFSET -0.000005 10.181595 0.131519
		CHANNELS 6 Xposition Yposition Zposition Xrotation Yrotation Zrotation
		JOINT mixamorig:Spine1
		{
			OFFSET -0.000000 9.893959 -1.470707
			CHANNELS 6 Xposition Yposition Zposition Xrotation Yrotation Zrotation
			JOINT mixamorig:Spine2
			{
				OFFSET -0.000000 9.220757 -1.370641
				CHANNELS 6 Xposition Yposition Zposition Xrotation Yrotation Zrotation
				JOINT mixamorig:Neck
				{
					OFFSET 0.000001 16.740417 -2.049036
					CHANNELS 6 Xposition Yposition Zposition Xrotation Yrotation Zrotation
					JOINT mixamorig:Head
					{
						OFFSET 0.000000 9.617874 1.685006
						CHANNELS 6 Xposition Yposition Zposition Xrotation Yrotation Zrotation
						JOINT mixamorig:HeadTop_End
						{
							OFFSET 0.000002 22.037354 7.501101
							CHANNELS 6 Xposition Yposition Zposition Xrotation Yrotation Zrotation
							End Site
							{
								OFFSET 0.000168 2310.654297 -282.823242
							}
						}
					}
				}
				JOINT mixamorig:RightShoulder
				{
					OFFSET -4.569970 11.014908 -2.160885
					CHANNELS 6 Xposition Yposition Zposition Xrotation Yrotation Zrotation
					JOINT mixamorig:RightArm
					{
						OFFSET -10.592851 -0.524811 -2.232101
						CHANNELS 6 Xposition Yposition Zposition Xrotation Yrotation Zrotation
						JOINT mixamorig:RightForeArm
						{
							OFFSET -27.841511 0.000031 -0.000004
							CHANNELS 6 Xposition Yposition Zposition Xrotation Yrotation Zrotation
							JOINT mixamorig:RightHand
							{
								OFFSET -28.328831 -0.000015 0.000015
								CHANNELS 6 Xposition Yposition Zposition Xrotation Yrotation Zrotation
								JOINT mixamorig:RightHandThumb1
								{
									OFFSET -2.464806 -1.573990 2.681852
									CHANNELS 6 Xposition Yposition Zposition Xrotation Yrotation Zrotation
									JOINT mixamorig:RightHandThumb2
									{
										OFFSET -3.215179 -1.872803 1.924282
										CHANNELS 6 Xposition Yposition Zposition Xrotation Yrotation Zrotation
										JOINT mixamorig:RightHandThumb3
										{
											OFFSET -2.654831 -1.527969 1.512609
											CHANNELS 6 Xposition Yposition Zposition Xrotation Yrotation Zrotation
											JOINT mixamorig:RightHandThumb4
											{
												OFFSET -2.018814 -1.152008 1.108052
												CHANNELS 6 Xposition Yposition Zposition Xrotation Yrotation Zrotation
												End Site
												{
													OFFSET -188.809540 -114.533607 132.431396
												}
											}
										}
									}
								}
								JOINT mixamorig:RightHandIndex1
								{
									OFFSET -9.108284 -0.517868 2.259835
									CHANNELS 6 Xposition Yposition Zposition Xrotation Yrotation Zrotation
									JOINT mixamorig:RightHandIndex2
									{
										OFFSET -3.699989 0.000000 0.001215
										CHANNELS 6 Xposition Yposition Zposition Xrotation Yrotation Zrotation
										JOINT mixamorig:RightHandIndex3
										{
											OFFSET -2.850006 0.000031 -0.000522
											CHANNELS 6 Xposition Yposition Zposition Xrotation Yrotation Zrotation
											JOINT mixamorig:RightHandIndex4
											{
												OFFSET -2.772186 -0.000015 -0.000020
												CHANNELS 6 Xposition Yposition Zposition Xrotation Yrotation Zrotation
												End Site
												{
													OFFSET -277.218445 0.000000 -0.050231
												}
											}
										}
									}
								}
								JOINT mixamorig:RightHandMiddle1
								{
									OFFSET -9.532516 -0.000031 -0.000023
									CHANNELS 6 Xposition Yposition Zposition Xrotation Yrotation Zrotation
									JOINT mixamorig:RightHandMiddle2
									{
										OFFSET -3.700005 -0.000015 0.003713
										CHANNELS 6 Xposition Yposition Zposition Xrotation Yrotation Zrotation
										JOINT mixamorig:RightHandMiddle3
										{
											OFFSET -2.949974 0.000015 -0.002054
											CHANNELS 6 Xposition Yposition Zposition Xrotation Yrotation Zrotation
											JOINT mixamorig:RightHandMiddle4
											{
												OFFSET -2.946640 0.000000 -0.000156
												CHANNELS 6 Xposition Yposition Zposition Xrotation Yrotation Zrotation
												End Site
												{
													OFFSET -294.664337 0.000000 -0.113670
												}
											}
										}
									}
								}
								JOINT mixamorig:RightHandRing1
								{
									OFFSET -9.103600 -0.043076 -1.865134
									CHANNELS 6 Xposition Yposition Zposition Xrotation Yrotation Zrotation
									JOINT mixamorig:RightHandRing2
									{
										OFFSET -3.379288 0.000000 -0.001055
										CHANNELS 6 Xposition Yposition Zposition Xrotation Yrotation Zrotation
										JOINT mixamorig:RightHandRing3
										{
											OFFSET -2.889687 -0.000015 0.000379
											CHANNELS 6 Xposition Yposition Zposition Xrotation Yrotation Zrotation
											JOINT mixamorig:RightHandRing4
											{
												OFFSET -2.638809 -0.000015 0.000941
												CHANNELS 6 Xposition Yposition Zposition Xrotation Yrotation Zrotation
												End Site
												{
													OFFSET -263.880371 0.000000 0.516020
												}
											}
										}
									}
								}
								JOINT mixamorig:RightHandPinky1
								{
									OFFSET -8.076683 -0.486710 -3.806280
									CHANNELS 6 Xposition Yposition Zposition Xrotation Yrotation Zrotation
									JOINT mixamorig:RightHandPinky2
									{
										OFFSET -3.600014 -0.000015 -0.003747
										CHANNELS 6 Xposition Yposition Zposition Xrotation Yrotation Zrotation
										JOINT mixamorig:RightHandPinky3
										{
											OFFSET -2.099983 0.000000 -0.005739
											CHANNELS 6 Xposition Yposition Zposition Xrotation Yrotation Zrotation
											JOINT mixamorig:RightHandPinky4
											{
												OFFSET -2.115768 -0.000031 -0.003680
												CHANNELS 6 Xposition Yposition Zposition Xrotation Yrotation Zrotation
												End Site
												{
													OFFSET -211.577087 0.000000 -0.350686
												}
											}
										}
									}
								}
							}
						}
					}
				}
				JOINT mixamorig:LeftShoulder
				{
					OFFSET 4.570447 11.014725 -2.160855
					CHANNELS 6 Xposition Yposition Zposition Xrotation Yrotation Zrotation
					JOINT mixamorig:LeftArm
					{
						OFFSET 10.592371 -0.524597 -2.232119
						CHANNELS 6 Xposition Yposition Zposition Xrotation Yrotation Zrotation
						JOINT mixamorig:LeftForeArm
						{
							OFFSET 27.841532 -0.000031 0.000026
							CHANNELS 6 Xposition Yposition Zposition Xrotation Yrotation Zrotation
							JOINT mixamorig:LeftHand
							{
								OFFSET 28.328846 -0.000061 0.000022
								CHANNELS 6 Xposition Yposition Zposition Xrotation Yrotation Zrotation
								JOINT mixamorig:LeftHandThumb1
								{
									OFFSET 2.466141 -1.576172 2.681732
									CHANNELS 6 Xposition Yposition Zposition Xrotation Yrotation Zrotation
									JOINT mixamorig:LeftHandThumb2
									{
										OFFSET 3.217812 -1.872070 1.916482
										CHANNELS 6 Xposition Yposition Zposition Xrotation Yrotation Zrotation
										JOINT mixamorig:LeftHandThumb3
										{
											OFFSET 2.656029 -1.528778 1.514513
											CHANNELS 6 Xposition Yposition Zposition Xrotation Yrotation Zrotation
											JOINT mixamorig:LeftHandThumb4
											{
												OFFSET 2.020889 -1.154053 1.115139
												CHANNELS 6 Xposition Yposition Zposition Xrotation Yrotation Zrotation
												End Site
												{
													OFFSET 190.885437 -115.081749 130.048782
												}
											}
										}
									}
								}
								JOINT mixamorig:LeftHandIndex1
								{
									OFFSET 9.109314 -0.518021 2.259871
									CHANNELS 6 Xposition Yposition Zposition Xrotation Yrotation Zrotation
									JOINT mixamorig:LeftHandIndex2
									{
										OFFSET 3.699989 0.000000 -0.000322
										CHANNELS 6 Xposition Yposition Zposition Xrotation Yrotation Zrotation
										JOINT mixamorig:LeftHandIndex3
										{
											OFFSET 2.850006 0.000000 0.000352
											CHANNELS 6 Xposition Yposition Zposition Xrotation Yrotation Zrotation
											JOINT mixamorig:LeftHandIndex4
											{
												OFFSET 2.774864 -0.000031 -0.000027
												CHANNELS 6 Xposition Yposition Zposition Xrotation Yrotation Zrotation
												End Site
												{
													OFFSET 277.486267 0.000000 -0.009857
												}
											}
										}
									}
								}
								JOINT mixamorig:LeftHandMiddle1
								{
									OFFSET 9.533394 0.000061 0.000044
									CHANNELS 6 Xposition Yposition Zposition Xrotation Yrotation Zrotation
									JOINT mixamorig:LeftHandMiddle2
									{
										OFFSET 3.699989 -0.000015 -0.000231
										CHANNELS 6 Xposition Yposition Zposition Xrotation Yrotation Zrotation
										JOINT mixamorig:LeftHandMiddle3
										{
											OFFSET 2.949997 -0.000015 -0.000059
											CHANNELS 6 Xposition Yposition Zposition Xrotation Yrotation Zrotation
											JOINT mixamorig:LeftHandMiddle4
											{
												OFFSET 2.952896 0.000031 0.000063
												CHANNELS 6 Xposition Yposition Zposition Xrotation Yrotation Zrotation
												End Site
												{
													OFFSET 295.289337 0.000000 0.022810
												}
											}
										}
									}
								}
								JOINT mixamorig:LeftHandRing1
								{
									OFFSET 9.104523 -0.042999 -1.865074
									CHANNELS 6 Xposition Yposition Zposition Xrotation Yrotation Zrotation
									JOINT mixamorig:LeftHandRing2
									{
										OFFSET 3.150009 -0.000031 0.000043
										CHANNELS 6 Xposition Yposition Zposition Xrotation Yrotation Zrotation
										JOINT mixamorig:LeftHandRing3
										{
											OFFSET 2.949982 -0.000015 0.000040
											CHANNELS 6 Xposition Yposition Zposition Xrotation Yrotation Zrotation
											JOINT mixamorig:LeftHandRing4
											{
												OFFSET 2.644348 0.000000 0.000057
												CHANNELS 6 Xposition Yposition Zposition Xrotation Yrotation Zrotation
												End Site
												{
													OFFSET 264.434631 0.000000 0.012105
												}
											}
										}
									}
								}
								JOINT mixamorig:LeftHandPinky1
								{
									OFFSET 8.077789 -0.486847 -3.806259
									CHANNELS 6 Xposition Yposition Zposition Xrotation Yrotation Zrotation
									JOINT mixamorig:LeftHandPinky2
									{
										OFFSET 3.599953 0.000031 0.014727
										CHANNELS 6 Xposition Yposition Zposition Xrotation Yrotation Zrotation
										JOINT mixamorig:LeftHandPinky3
										{
											OFFSET 2.100021 0.000015 0.007705
											CHANNELS 6 Xposition Yposition Zposition Xrotation Yrotation Zrotation
											JOINT mixamorig:LeftHandPinky4
											{
												OFFSET 2.125504 0.000031 0.007517
												CHANNELS 6 Xposition Yposition Zposition Xrotation Yrotation Zrotation
												End Site
												{
													OFFSET 212.550781 0.000000 0.625752
												}
											}
										}
									}
								}
							}
						}
					}
				}
			}
		}
	}
	JOINT mixamorig:RightUpLeg
	{
		OFFSET -8.207787 -6.751648 -1.599560
		CHANNELS 6 Xposition Yposition Zposition Xrotation Yrotation Zrotation
		JOINT mixamorig:RightLeg
		{
			OFFSET -0.000002 -44.370117 0.345942
			CHANNELS 6 Xposition Yposition Zposition Xrotation Yrotation Zrotation
			JOINT mixamorig:RightFoot
			{
				OFFSET 0.000003 -44.423679 -3.043532
				CHANNELS 6 Xposition Yposition Zposition Xrotation Yrotation Zrotation
				JOINT mixamorig:RightToeBase
				{
					OFFSET -0.000002 -8.728671 10.710558
					CHANNELS 6 Xposition Yposition Zposition Xrotation Yrotation Zrotation
					JOINT mixamorig:RightToe_End
					{
						OFFSET -0.000001 -0.000679 9.278119
						CHANNELS 6 Xposition Yposition Zposition Xrotation Yrotation Zrotation
						End Site
						{
							OFFSET 0.000000 -0.067690 927.812134
						}
					}
				}
			}
		}
	}
	JOINT mixamorig:LeftUpLeg
	{
		OFFSET 8.207793 -6.751686 -1.599556
		CHANNELS 6 Xposition Yposition Zposition Xrotation Yrotation Zrotation
		JOINT mixamorig:LeftLeg
		{
			OFFSET -0.000004 -44.370014 0.346954
			CHANNELS 6 Xposition Yposition Zposition Xrotation Yrotation Zrotation
			JOINT mixamorig:LeftFoot
			{
				OFFSET -0.000001 -44.423672 -3.044401
				CHANNELS 6 Xposition Yposition Zposition Xrotation Yrotation Zrotation
				JOINT mixamorig:LeftToeBase
				{
					OFFSET -0.000002 -8.728669 10.710558
					CHANNELS 6 Xposition Yposition Zposition Xrotation Yrotation Zrotation
					JOINT mixamorig:LeftToe_End
					{
						OFFSET -0.000003 -0.000679 9.278133
						CHANNELS 6 Xposition Yposition Zposition Xrotation Yrotation Zrotation
						End Site
						{
							OFFSET 0.000000 -0.068021 927.813477
						}
					}
				}
			}
		}
	}
}
MOTION
Frames: 3
Frame Time: 0.033333
0.000006 104.270477 1.554256 0.000010 0.000003 -0.000113 -0.000005 10.181587 0.131522 0.000001 -0.000003 0.000084 -0.000000 9.893967 -1.470711 0.000001 0.000000 -0.000000 -0.000000 9.220802 -1.370642 0.000000 -0.000000 -0.000000 0.000001 16.740433 -2.049030 0.000000 -0.000000 -0.000000 0.000000 9.617859 1.685014 0.000000 0.000000 0.000000 0.000002 22.037384 7.501101 0.000000 -0.000000 0.000000 -4.569968 11.014880 -2.160881 0.000008 0.000001 -0.000038 -10.592882 -0.524739 -2.231946 72.942998 22.628572 -16.825758 -27.841532 0.000013 0.000533 -59.773820 108.831695 77.545009 -28.328833 0.000020 0.000030 -0.000314 -0.000043 0.000008 -2.464430 -1.573881 2.682369 -34.138580 -152.411122 18.026331 -3.215250 -1.872498 1.924617 147.955066 33.708076 29.222397 -2.654952 -1.527883 1.513065 150.889903 26.891959 -31.231634 -2.018834 -1.151996 1.108066 -0.000003 -0.000006 -0.000001 -9.108400 -0.517555 2.260123 96.332244 17.359001 -19.407860 -3.700068 0.000325 0.001474 88.059682 15.694617 -15.154716 -2.850093 0.000344 -0.000308 86.926834 13.019427 -12.343683 -2.772170 -0.000014 -0.000022 -0.000000 0.000001 -0.000000 -9.532601 0.000280 0.000237 94.212911 14.108895 -15.324322 -3.700074 0.000330 0.003969 93.476992 11.573897 -12.193190 -2.950046 0.000333 -0.001819 92.855466 11.778092 -12.368177 -2.946623 -0.000001 -0.000154 0.000002 -0.000000 -0.000001 -9.103709 -0.042747 -1.864848 94.881689 15.385850 -16.689617 -3.379330 0.000335 -0.000808 94.148359 7.295271 -7.859982 -2.889738 0.000357 0.000628 95.004079 5.869337 -6.453603 -2.638813 -0.000002 0.000943 -0.000002 0.000002 -0.000002 -8.076751 -0.486380 -3.806014 91.810317 16.123440 -16.480152 -3.600032 0.000296 -0.003507 94.056971 6.309231 -6.401454 -2.099995 0.000327 -0.005483 93.022942 4.282115 -4.287305 -2.115781 -0.000054 -0.003679 0.000005 -0.000001 -0.000007 4.570446 11.014691 -2.160851 -0.000018 0.000010 -0.000021 10.592395 -0.524478 -2.232342 74.270507 -11.041975 8.372806 27.841824 0.000069 -0.000192 99.702457 -69.654863 79.030282 28.328831 -0.000029 0.000024 0.000021 -0.000089 0.000000 2.466072 -1.576164 2.681901 -25.587875 147.275640 -30.812168 3.217633 -1.871647 1.916381 140.067960 -32.952258 -57.400999 2.656084 -1.528584 1.514464 145.843363 -27.212010 35.074705 2.020898 -1.154068 1.115133 -0.000001 -0.000000 0.000003 9.109396 -0.517821 2.259721 93.783142 -13.643463 14.552857 3.700047 0.000185 -0.000466 90.777763 -14.115028 14.323300 2.850049 0.000218 0.000210 91.937358 -13.285928 13.737288 2.774889 -0.000030 -0.000028 0.000002 0.000000 0.000002 9.533464 0.000252 -0.000077 93.485626 -12.979543 13.777476 3.700069 0.000191 -0.000368 97.154045 -13.625753 15.419222 2.950083 0.000182 -0.000175 99.782281 -18.186668 21.520859 2.952873 -0.000029 0.000061 0.000002 -0.000001 0.000000 9.104609 -0.042801 -1.865239 94.394792 -13.210014 14.255808 3.150058 0.000230 -0.000094 102.536289 -12.232751 15.221918 2.950048 0.000181 -0.000056 105.583701 -14.938901 19.596837 2.644317 0.000030 0.000060 -0.000001 -0.000000 0.000000 8.077856 -0.486692 -3.806400 83.865632 -15.546163 14.505206 3.599992 0.000212 0.014556 86.744161 -11.942424 11.761101 2.100051 0.000214 0.007545 91.352387 -11.698346 12.467189 2.125515 -0.000031 0.007514 0.000003 -0.000000 0.000001 -8.207786 -6.751667 -1.599560 -0.077001 -0.000003 0.000080 -0.000002 -44.370110 0.345938 0.153719 -0.000000 -0.000000 0.000000 -44.423679 -3.043532 -0.076700 0.000000 -0.000002 -0.000006 -8.728667 10.710559 -0.000009 -0.000000 -0.000000 -0.000001 -0.000679 9.278123 0.000000 -0.000000 -0.000000 8.207792 -6.751710 -1.599556 -0.074518 -0.000003 0.000081 -0.000002 -44.370014 0.346960 0.148822 0.000002 0.000000 -0.000001 -44.423664 -3.044403 -0.074314 0.000000 -0.000002 -0.000004 -8.728671 10.710558 0.000007 -0.000000 -0.000000 0.000000 -0.000680 9.278137 -0.000000 0.000000 -0.000001 
0.000006 104.270477 1.554256 0.000010 0.000003 -0.000113 -0.000005 10.181587 0.131522 0.000001 -0.000003 0.000084 -0.000000 9.893967 -1.470711 0.000001 0.000000 -0.000000 -0.000000 9.220802 -1.370642 0.000000 -0.000000 -0.000000 0.000001 16.740433 -2.049030 0.000000 -0.000000 -0.000000 0.000000 9.617859 1.685014 0.000000 0.000000 0.000000 0.000002 22.037384 7.501101 0.000000 -0.000000 0.000000 -4.569968 11.014880 -2.160881 0.000008 0.000001 -0.000038 -10.592874 -0.524756 -2.231901 73.376258 28.115205 -21.135115 -27.841534 0.000018 0.000542 -56.490012 105.961349 70.931897 -28.328833 0.000021 0.000022 -0.000323 -0.000045 0.000009 -2.464396 -1.573783 2.682321 -46.190698 -159.697896 -6.102598 -3.215230 -1.872484 1.924607 145.306660 33.149681 32.202395 -2.654963 -1.527857 1.513059 148.185312 27.791259 -26.431963 -2.018816 -1.151978 1.108074 -0.000000 -0.000005 0.000004 -9.108396 -0.517557 2.260094 93.697075 16.375293 -17.500970 -3.700084 0.000305 0.001489 89.950839 15.012957 -14.976245 -2.850087 0.000353 -0.000279 90.167410 12.719737 -12.755694 -2.772147 -0.000016 -0.000019 0.000004 -0.000001 -0.000001 -9.532588 0.000275 0.000231 93.363406 16.274983 -17.396164 -3.700075 0.000323 0.003973 93.238004 14.013667 -14.717934 -2.950088 0.000337 -0.001761 96.954119 13.242968 -14.929976 -2.946626 -0.000015 -0.000156 0.000000 -0.000001 0.000001 -9.103701 -0.042758 -1.864864 92.957652 18.583365 -19.502241 -3.379345 0.000328 -0.000803 93.347963 9.875216 -10.485011 -2.889743 0.000352 0.000666 101.875106 6.729706 -8.343042 -2.638830 -0.000021 0.000942 -0.000001 0.000001 -0.000001 -8.076763 -0.486399 -3.806015 88.709636 18.861340 -18.298879 -3.600059 0.000288 -0.003502 93.832285 8.324680 -8.520005 -2.100031 0.000325 -0.005469 98.185813 4.624743 -5.087196 -2.115773 -0.000054 -0.003678 -0.000005 0.000001 -0.000001 4.570446 11.014691 -2.160851 -0.000018 0.000010 -0.000021 10.592382 -0.524491 -2.232342 73.620963 -5.374100 4.023263 27.841831 0.000059 -0.000191 101.628598 -71.606214 83.008689 28.328840 -0.000029 0.000019 0.000020 -0.000089 -0.000000 2.466101 -1.576168 2.681892 -16.585926 152.803353 -50.308807 3.217675 -1.871672 1.916393 149.478185 -35.704715 -39.997209 2.656108 -1.528598 1.514475 149.689838 -25.572167 42.765150 2.020884 -1.154085 1.115143 -0.000000 0.000007 0.000002 9.109371 -0.517830 2.259743 95.144337 -17.699283 19.320488 3.700032 0.000186 -0.000466 91.895202 -12.664502 13.104265 2.850041 0.000231 0.000211 91.343350 -10.274932 10.516062 2.774865 -0.000046 -0.000028 -0.000001 0.000003 -0.000000 9.533469 0.000231 -0.000095 94.939787 -16.819713 18.301804 3.700049 0.000191 -0.000374 97.232626 -11.157760 12.648778 2.950070 0.000192 -0.000183 98.710304 -12.108483 14.089599 2.952859 -0.000029 0.000057 0.000002 0.000001 -0.000000 9.104589 -0.042830 -1.865224 94.319523 -16.482186 17.756344 3.150042 0.000249 -0.000105 101.141216 -10.353445 12.577136 2.950040 0.000228 -0.000053 103.964085 -10.283628 13.133784 2.644317 0.000014 0.000059 0.000001 0.000000 0.000000 8.077841 -0.486695 -3.806400 85.889615 -17.994004 17.320397 3.600013 0.000205 0.014565 89.671846 -13.915600 14.346309 2.100041 0.000214 0.007563 93.345135 -10.793224 11.941695 2.125495 -0.000016 0.007517 -0.000001 -0.000003 0.000000 -8.207786 -6.751667 -1.599560 -0.077001 -0.000003 0.000080 -0.000002 -44.370110 0.345938 0.153719 -0.000000 -0.000000 0.000000 -44.423679 -3.043532 -0.076700 0.000000 -0.000002 -0.000006 -8.728667 10.710559 -0.000009 -0.000000 -0.000000 -0.000001 -0.000679 9.278123 0.000000 -0.000000 -0.000000 8.207792 -6.751710 -1.599556 -0.074518 -0.000003 0.000081 -0.000002 -44.370014 0.346960 0.148822 0.000002 0.000000 -0.000001 -44.423664 -3.044403 -0.074314 0.000000 -0.000002 -0.000004 -8.728671 10.710558 0.000007 -0.000000 -0.000000 0.000000 -0.000680 9.278137 -0.000000 0.000000 -0.000001 
0.000006 104.270477 1.554256 0.000010 0.000003 -0.000113 -0.000005 10.181587 0.131522 0.000001 -0.000003 0.000084 -0.000000 9.893967 -1.470711 0.000001 0.000000 -0.000000 -0.000000 9.220802 -1.370642 0.000000 -0.000000 -0.000000 0.000001 16.740433 -2.049030 0.000000 -0.000000 -0.000000 0.000000 9.617859 1.685014 0.000000 0.000000 0.000000 0.000002 22.037384 7.501101 0.000000 -0.000000 0.000000 -4.569968 11.014880 -2.160881 0.000008 0.000001 -0.000038 -10.592857 -0.524800 -2.231850 73.016437 40.095584 -30.230284 -27.841526 0.000012 0.000538 -54.132948 103.578685 65.975236 -28.328819 0.000023 0.000026 -0.000320 -0.000046 0.000006 -2.464404 -1.573822 2.682331 -44.344983 -157.635889 -2.104415 -3.215232 -1.872519 1.924607 146.270222 33.002572 27.756873 -2.654963 -1.527876 1.513062 146.688107 27.800793 -28.192086 -2.018834 -1.152004 1.108063 -0.000003 -0.000001 0.000002 -9.108382 -0.517551 2.260103 94.804180 16.481069 -17.952601 -3.700098 0.000303 0.001475 89.926523 15.345384 -15.301905 -2.850097 0.000348 -0.000288 89.697705 12.815026 -12.747212 -2.772170 -0.000015 -0.000021 0.000000 -0.000001 -0.000001 -9.532596 0.000271 0.000235 93.208293 15.791836 -16.839261 -3.700074 0.000307 0.003980 93.633417 14.147312 -14.960865 -2.950071 0.000329 -0.001782 97.031177 13.224290 -14.928934 -2.946635 -0.000000 -0.000156 0.000002 0.000003 0.000001 -9.103709 -0.042774 -1.864883 92.305676 17.545971 -18.208174 -3.379349 0.000305 -0.000808 93.288677 9.810522 -10.405742 -2.889758 0.000348 0.000660 101.330733 6.801353 -8.350106 -2.638814 -0.000020 0.000943 -0.000003 -0.000000 -0.000001 -8.076742 -0.486385 -3.806020 87.000969 17.903410 -16.859367 -3.600051 0.000297 -0.003506 92.337191 7.436817 -7.380874 -2.099998 0.000317 -0.005460 96.807242 3.899828 -4.151736 -2.115775 -0.000026 -0.003682 -0.000003 0.000000 -0.000004 4.570446 11.014691 -2.160851 -0.000018 0.000010 -0.000021 10.592410 -0.524473 -2.232367 72.857662 -16.192874 11.987381 27.841822 0.000044 -0.000173 103.840677 -74.978852 88.781278 28.328848 -0.000028 0.000021 0.000024 -0.000089 -0.000000 2.466086 -1.576161 2.681894 -23.109201 153.570766 -39.504212 3.217716 -1.871674 1.916377 153.030320 -35.209571 -28.320959 2.656100 -1.528619 1.514461 149.089547 -25.700258 42.948475 2.020895 -1.154071 1.115134 -0.000002 0.000003 0.000004 9.109372 -0.517840 2.259752 95.108991 -17.380125 18.961408 3.700055 0.000185 -0.000467 91.690078 -12.763659 13.159875 2.850039 0.000211 0.000202 90.856699 -10.259712 10.412148 2.774888 -0.000029 -0.000022 0.000006 0.000001 -0.000000 9.533470 0.000233 -0.000078 94.964669 -16.451346 17.909514 3.700043 0.000215 -0.000367 96.966078 -11.182473 12.617950 2.950061 0.000191 -0.000204 98.080915 -11.883355 13.677118 2.952859 -0.000014 0.000060 0.000006 0.000000 -0.000001 9.104572 -0.042828 -1.865214 94.304627 -15.954028 17.184211 3.150053 0.000259 -0.000102 101.302579 -10.271424 12.513355 2.950036 0.000229 -0.000092 103.942434 -9.988423 12.753122 2.644317 0.000030 0.000056 -0.000001 0.000000 0.000000 8.077840 -0.486690 -3.806392 86.879795 -17.290930 16.947067 3.600027 0.000230 0.014559 89.769661 -13.343207 13.797332 2.100054 0.000223 0.007543 92.604490 -10.125423 11.086914 2.125502 0.000000 0.007513 0.000002 0.000000 0.000000 -8.207786 -6.751667 -1.599560 -0.077001 -0.000003 0.000080 -0.000002 -44.370110 0.345938 0.153719 -0.000000 -0.000000 0.000000 -44.423679 -3.043532 -0.076700 0.000000 -0.000002 -0.000006 -8.728667 10.710559 -0.000009 -0.000000 -0.000000 -0.000001 -0.000679 9.278123 0.000000 -0.000000 -0.000000 8.207792 -6.751710 -1.599556 -0.074518 -0.000003 0.000081 -0.000002 -44.370014 0.346960 0.148822 0.000002 0.000000 -0.000001 -44.423664 -3.044403 -0.074314 0.000000 -0.000002 -0.000004 -8.728671 10.710558 0.000007 -0.000000 -0.000000 0.000000 -0.000680 9.278137 -0.000000 0.000000 -0.000001 
